<?xml version="1.0" ?><svg id="Message" style="enable-background:new 0 0 400 400;" version="1.1" viewBox="0 0 400 400" xml:space="preserve" xmlns="http://www.w3.org/2000/svg" xmlns:xlink="http://www.w3.org/1999/xlink"><g id="XMLID_12_"><polygon id="XMLID_13_" points="80,66.7 106.7,66.7 133.3,66.7 160,66.7 186.7,66.7 213.3,66.7 240,66.7 266.7,66.7 293.3,66.7    320,66.7 346.7,66.7 373.3,66.7 373.3,40 346.7,40 320,40 293.3,40 266.7,40 240,40 213.3,40 186.7,40 160,40 133.3,40 106.7,40    80,40 53.3,40 26.7,40 26.7,66.7 53.3,66.7  "/><polygon id="XMLID_107_" points="373.3,66.7 373.3,93.3 373.3,120 373.3,146.7 373.3,173.3 373.3,200 373.3,226.7 373.3,253.3    373.3,280 373.3,306.7 373.3,333.3 400,333.3 400,306.7 400,280 400,253.3 400,226.7 400,200 400,173.3 400,146.7 400,120    400,93.3 400,66.7  "/><rect height="26.7" id="XMLID_108_" width="26.7" x="53.3" y="93.3"/><rect height="26.7" id="XMLID_109_" width="26.7" x="320" y="93.3"/><rect height="26.7" id="XMLID_110_" width="26.7" x="80" y="120"/><rect height="26.7" id="XMLID_111_" width="26.7" x="106.7" y="146.7"/><rect height="26.7" id="XMLID_112_" width="26.7" x="266.7" y="146.7"/><rect height="26.7" id="XMLID_113_" width="26.7" x="293.3" y="120"/><rect height="26.7" id="XMLID_114_" width="26.7" x="133.3" y="173.3"/><rect height="26.7" id="XMLID_115_" width="26.7" x="160" y="200"/><rect height="26.7" id="XMLID_116_" width="26.7" x="213.3" y="200"/><rect height="26.7" id="XMLID_117_" width="26.7" x="240" y="173.3"/><rect height="26.7" id="XMLID_118_" width="26.7" x="186.7" y="226.7"/><polygon id="XMLID_119_" points="26.7,280 26.7,253.3 26.7,226.7 26.7,200 26.7,173.3 26.7,146.7 26.7,120 26.7,93.3 26.7,66.7    0,66.7 0,93.3 0,120 0,146.7 0,173.3 0,200 0,226.7 0,253.3 0,280 0,306.7 0,333.3 26.7,333.3 26.7,306.7  "/><polygon id="XMLID_120_" points="320,333.3 293.3,333.3 266.7,333.3 240,333.3 213.3,333.3 186.7,333.3 160,333.3 133.3,333.3    106.7,333.3 80,333.3 53.3,333.3 26.7,333.3 26.7,360 53.3,360 80,360 106.7,360 133.3,360 160,360 186.7,360 213.3,360 240,360    266.7,360 293.3,360 320,360 346.7,360 373.3,360 373.3,333.3 346.7,333.3  "/></g></svg>