<svg width="119" height="119" viewBox="0 0 119 119" fill="none" xmlns="http://www.w3.org/2000/svg">
<rect width="118.438" height="118.438" rx="5" fill="#070080" fill-opacity="0.1"/>
<path d="M59.2253 28.6375C51.9111 28.6375 45.9648 34.5837 45.9648 41.8979C45.9648 49.0725 51.5761 54.8791 58.8903 55.1304C59.1136 55.1025 59.3369 55.1025 59.5044 55.1304C59.5603 55.1304 59.5882 55.1304 59.644 55.1304C59.6719 55.1304 59.6719 55.1304 59.6998 55.1304C66.8465 54.8791 72.4578 49.0725 72.4857 41.8979C72.4857 34.5837 66.5394 28.6375 59.2253 28.6375Z" fill="#070080"/>
<path d="M73.3955 62.5562C65.6068 57.3637 52.9047 57.3637 45.0601 62.5562C41.5147 64.9292 39.5605 68.1396 39.5605 71.5733C39.5605 75.0071 41.5147 78.1896 45.0322 80.5346C48.9405 83.1587 54.0772 84.4708 59.2139 84.4708C64.3505 84.4708 69.4872 83.1587 73.3955 80.5346C76.9131 78.1617 78.8672 74.9792 78.8672 71.5175C78.8393 68.0837 76.9131 64.9012 73.3955 62.5562Z" fill="#070080"/>
</svg>
